<svg xmlns="http://www.w3.org/2000/svg" width="1948" height="610" viewBox="0 0 1948 610" version="1.1"><path d="M 276.930 44.345 C 272.217 47.180, 248.480 61.159, 224.180 75.409 C 199.881 89.658, 180 101.691, 180 102.147 C 180 102.603, 210.976 153.719, 248.835 215.738 C 286.694 277.757, 339.195 363.825, 365.503 407 C 391.810 450.175, 413.421 485.624, 413.526 485.775 C 413.631 485.927, 435.943 473.270, 463.109 457.650 L 512.500 429.249 512.754 299.244 L 513.007 169.240 400.416 104.120 C 338.491 68.304, 287.302 39.043, 286.662 39.095 C 286.023 39.146, 281.644 41.509, 276.930 44.345 M 101.750 145.267 L 61 169.390 61 299.109 L 61 428.828 77.250 438.277 C 86.188 443.474, 137.041 472.995, 190.258 503.878 L 287.016 560.029 332.052 533.765 C 364.222 515.003, 376.974 507.071, 376.690 506 C 376.348 504.705, 328.199 425.120, 177.645 177 C 159.123 146.475, 143.639 121.420, 143.235 121.322 C 142.831 121.224, 124.162 131.999, 101.750 145.267 M 279.318 131.319 L 272.135 135.553 281.857 151.526 C 287.204 160.312, 321.875 217.779, 358.904 279.230 L 426.229 390.960 430.620 387.807 L 435.011 384.653 434.756 299.138 L 434.500 213.622 361.500 170.710 C 321.350 147.108, 288.050 127.637, 287.500 127.441 C 286.950 127.245, 283.268 128.990, 279.318 131.319 M 566 193 L 566 210 575.500 210 L 585 210 585 273 L 585 336 575.500 336 L 566 336 566 353.500 L 566 371 646 371 L 726 371 726 339 L 726 307 711.138 307 L 696.275 307 695.675 312.250 C 695.346 315.137, 694.769 321.663, 694.394 326.750 L 693.713 336 659.857 336 L 626 336 626 312.016 L 626 288.032 653.750 287.766 L 681.500 287.500 681.778 273.750 L 682.056 260 654.028 260 L 626 260 626 235 L 626 210 659.799 210 L 693.597 210 694.758 224.030 C 695.396 231.746, 696.188 238.496, 696.518 239.030 C 696.861 239.584, 703.304 240, 711.559 240 L 726 240 726 208 L 726 176 646 176 L 566 176 566 193 M 1540 193 L 1540 210 1549.500 210 L 1559 210 1559 272.500 L 1559 335 1549.500 335 L 1540 335 1540 353 L 1540 371 1583.750 370.977 C 1643.030 370.947, 1656.287 369.776, 1673.743 363.034 C 1693.382 355.449, 1709.381 341.241, 1718.264 323.500 C 1724.395 311.253, 1728.990 290.253, 1728.986 274.500 C 1728.972 227.442, 1708.499 194.908, 1670.722 181.915 C 1654.615 176.374, 1649.656 176, 1592.369 176 L 1540 176 1540 193 M 1742 193 L 1742 210 1751.500 210 L 1761 210 1761 273 L 1761 336 1751.476 336 L 1741.953 336 1742.226 353.250 L 1742.500 370.500 1822.500 370.500 L 1902.500 370.500 1902.764 338.750 L 1903.028 307 1888.033 307 C 1870.738 307, 1872.534 305.642, 1871.507 319.500 C 1871.181 323.900, 1870.657 329.413, 1870.344 331.750 L 1869.773 336 1836.386 336 L 1803 336 1803 312 L 1803 288 1830.500 288 L 1858 288 1858 274 L 1858 260 1830.500 260 L 1803 260 1803 235 L 1803 210 1836.386 210 L 1869.773 210 1870.343 214.250 C 1870.656 216.588, 1871.192 222.550, 1871.534 227.500 C 1872.491 241.336, 1870.845 240.096, 1887.826 239.776 L 1902.500 239.500 1902.764 207.750 L 1903.028 176 1822.514 176 L 1742 176 1742 193 M 1301 199 L 1301 221 1289.500 221 L 1278 221 1278 236 L 1278 251 1289.427 251 L 1300.855 251 1301.239 289.750 C 1301.597 325.867, 1301.772 329.043, 1303.817 336.500 C 1308.513 353.621, 1315.909 363.689, 1327.997 369.418 C 1334.337 372.423, 1334.863 372.500, 1349 372.486 C 1362.012 372.473, 1364.500 372.178, 1373.243 369.602 C 1378.601 368.023, 1383.611 366.229, 1384.376 365.616 C 1385.557 364.668, 1385.433 362.056, 1383.552 348.252 C 1382.334 339.315, 1381.129 331.796, 1380.875 331.542 C 1380.622 331.288, 1377.508 331.992, 1373.957 333.106 C 1370.406 334.219, 1364.557 335.383, 1360.960 335.693 C 1351.569 336.500, 1346.808 333.957, 1343.166 326.187 L 1340.500 320.500 1340.171 285.750 L 1339.842 251 1360.921 251 L 1382 251 1382 236 L 1382 221 1361 221 L 1340 221 1340 199 L 1340 177 1320.500 177 L 1301 177 1301 199 M 140.197 211.858 L 136.982 214.500 136.991 299.564 L 137 384.628 164.750 400.635 C 180.012 409.439, 213.719 428.897, 239.653 443.875 L 286.805 471.108 291.888 468.304 C 294.684 466.762, 296.978 465.206, 296.986 464.846 C 296.994 464.486, 274.652 427.136, 247.338 381.846 C 220.023 336.556, 185.466 279.186, 170.543 254.358 L 143.412 209.215 140.197 211.858 M 1600 272.891 L 1600 336 1619.840 336 C 1648.482 336, 1658.538 333.063, 1670.486 321.210 C 1680.459 311.317, 1685.683 297.525, 1686.694 278.422 C 1688.318 247.745, 1678.285 225.732, 1658 215.461 C 1650.281 211.552, 1644.905 210.772, 1622.250 210.273 L 1600 209.783 1600 272.891 M 1008.411 220.484 C 1000.960 222.105, 992.118 226.468, 985.198 231.938 L 980 236.047 980 228.508 L 980 220.970 950.750 221.235 L 921.500 221.500 921.500 236 L 921.500 250.500 930.750 250.788 L 940 251.075 940 322 L 940 392.925 930.750 393.212 L 921.500 393.500 921.500 408 L 921.500 422.500 960 422.500 L 998.500 422.500 998.777 407.750 L 999.053 393 989.527 393 L 980 393 980 373.915 L 980 354.830 984.750 359.020 C 1000.532 372.943, 1026.576 376.778, 1047.917 368.321 C 1066.361 361.013, 1079.082 345.545, 1085.192 323 C 1087.231 315.479, 1087.490 312.311, 1087.443 295.500 C 1087.398 279.161, 1087.084 275.379, 1085.201 268.500 C 1079.554 247.865, 1068.072 232.893, 1052 225.204 C 1047.325 222.968, 1040.830 220.657, 1037.566 220.069 C 1029.682 218.649, 1015.948 218.844, 1008.411 220.484 M 1154.500 220.108 C 1151.750 220.655, 1145.675 222.939, 1141 225.183 C 1134.275 228.411, 1130.930 230.855, 1124.982 236.882 C 1116.014 245.969, 1111.184 254.964, 1107.397 269.629 C 1105.223 278.049, 1104.846 281.705, 1104.833 294.500 C 1104.804 322.743, 1111.516 341.914, 1126.583 356.624 C 1146.667 376.232, 1185.261 378.360, 1206.750 361.044 L 1212.914 356.077 1213.207 363.289 L 1213.500 370.500 1242.500 370.500 L 1271.500 370.500 1271.777 355.750 L 1272.053 341 1262.527 341 L 1253 341 1253 281 L 1253 221 1233 221 L 1213 221 1213 228.703 L 1213 236.406 1209.250 232.860 C 1203.659 227.572, 1200.282 225.540, 1192 222.476 C 1185.552 220.090, 1182.747 219.660, 1172 219.406 C 1165.125 219.244, 1157.250 219.560, 1154.500 220.108 M 1442.633 220.553 C 1434.385 222.191, 1426.898 224.572, 1421.573 227.248 C 1415.961 230.068, 1407.179 238.713, 1404.445 244.109 C 1399.252 254.357, 1399.144 269.481, 1404.193 279.377 C 1411.063 292.844, 1421.861 299.697, 1453.807 310.863 C 1476.651 318.848, 1482.583 323.040, 1482.267 330.973 C 1482.066 335.992, 1479.845 339.349, 1475.191 341.664 C 1472.078 343.213, 1469.230 343.480, 1457 343.375 C 1447.615 343.294, 1440.913 342.751, 1438 341.835 L 1433.500 340.420 1432.500 329.960 L 1431.500 319.500 1416.730 319.223 L 1401.961 318.946 1402.230 340.723 L 1402.500 362.500 1414.446 365.744 C 1432.179 370.560, 1446.111 372.438, 1463.500 372.355 C 1499.742 372.183, 1517.907 361.565, 1522.011 338.152 C 1524.827 322.086, 1518.067 306.541, 1504.168 297.122 C 1495.965 291.564, 1491.675 289.552, 1471.573 281.836 C 1446.294 272.133, 1441.071 268.430, 1440.733 259.973 C 1440.355 250.484, 1447.633 247.059, 1468 247.143 C 1475.425 247.174, 1482.625 247.511, 1484 247.892 C 1486.647 248.626, 1486.871 249.485, 1488.537 265.250 L 1489.144 271 1503.072 271 L 1517 271 1517 250.013 L 1517 229.027 1513.567 227.592 C 1507.667 225.127, 1494.951 221.944, 1485.029 220.448 C 1473.263 218.675, 1451.818 218.727, 1442.633 220.553 M 740.223 235.750 L 740.500 250.500 750.759 250.785 L 761.019 251.070 780.009 273.193 C 790.454 285.361, 799 295.608, 799 295.964 C 799 296.320, 790.181 306.599, 779.403 318.806 L 759.805 341 749.876 341 L 739.947 341 740.223 355.750 L 740.500 370.500 777.250 370.762 L 814 371.025 814 356.062 L 814 341.100 808.328 340.800 L 802.655 340.500 813.578 327.538 C 819.585 320.409, 824.950 314.757, 825.500 314.978 C 826.050 315.200, 831.310 321.033, 837.188 327.940 L 847.876 340.500 841.912 340.798 L 835.947 341.097 836.224 355.798 L 836.500 370.500 873.250 370.762 L 910 371.025 910 356.012 L 910 341 900.250 340.956 L 890.500 340.912 870.737 318.455 L 850.974 295.998 870.237 273.509 L 889.500 251.020 899.750 251.010 L 910 251 910 236 L 910 221 872.973 221 L 835.947 221 836.223 235.750 L 836.500 250.500 841.759 251 L 847.018 251.500 836.398 264.500 C 830.556 271.650, 825.652 277.638, 825.498 277.807 C 825.153 278.187, 804 252.377, 804 251.577 C 804 251.260, 806.250 251, 809 251 L 814 251 814 236 L 814 221 776.973 221 L 739.947 221 740.223 235.750 M 1001.878 255.389 C 993.028 257.952, 985.148 265.160, 981.207 274.297 C 980.401 276.164, 980 283.577, 980 296.580 C 980 315.383, 980.088 316.239, 982.500 321 C 985.848 327.607, 991.143 332.710, 997.914 335.856 C 1002.555 338.012, 1004.853 338.433, 1011.500 338.348 C 1032.963 338.073, 1046.091 324.156, 1047.673 300 C 1048.967 280.238, 1041.365 264.240, 1027.446 257.430 C 1020.954 254.253, 1009.072 253.305, 1001.878 255.389 M 1172.274 254.995 C 1153.867 258.884, 1142.579 279.627, 1145.794 303.658 C 1148.520 324.032, 1159.510 336, 1177.766 338.478 C 1190.907 340.261, 1204.383 332.998, 1210.600 320.783 C 1212.891 316.281, 1213 315.178, 1213 296.500 C 1213 277.612, 1212.913 276.763, 1210.500 272 C 1203.667 258.515, 1188.193 251.631, 1172.274 254.995" stroke="none" fill="#fbfbfb" fill-rule="evenodd"/><path d="M 0 305.001 L 0 610.001 974.250 609.751 L 1948.500 609.500 1948.752 304.750 L 1949.003 0 974.502 0 L 0 0 0 305.001 M 0.494 305.500 C 0.494 473.250, 0.609 541.726, 0.750 457.669 C 0.891 373.612, 0.891 236.362, 0.750 152.669 C 0.609 68.976, 0.494 137.750, 0.494 305.500 M 276.930 44.345 C 272.217 47.180, 248.480 61.159, 224.180 75.409 C 199.881 89.658, 180 101.691, 180 102.147 C 180 102.603, 210.976 153.719, 248.835 215.738 C 286.694 277.757, 339.195 363.825, 365.503 407 C 391.810 450.175, 413.421 485.624, 413.526 485.775 C 413.631 485.927, 435.943 473.270, 463.109 457.650 L 512.500 429.249 512.754 299.244 L 513.007 169.240 400.416 104.120 C 338.491 68.304, 287.302 39.043, 286.662 39.095 C 286.023 39.146, 281.644 41.509, 276.930 44.345 M 101.750 145.267 L 61 169.390 61 299.109 L 61 428.828 77.250 438.277 C 86.188 443.474, 137.041 472.995, 190.258 503.878 L 287.016 560.029 332.052 533.765 C 364.222 515.003, 376.974 507.071, 376.690 506 C 376.348 504.705, 328.199 425.120, 177.645 177 C 159.123 146.475, 143.639 121.420, 143.235 121.322 C 142.831 121.224, 124.162 131.999, 101.750 145.267 M 279.318 131.319 L 272.135 135.553 281.857 151.526 C 287.204 160.312, 321.875 217.779, 358.904 279.230 L 426.229 390.960 430.620 387.807 L 435.011 384.653 434.756 299.138 L 434.500 213.622 361.500 170.710 C 321.350 147.108, 288.050 127.637, 287.500 127.441 C 286.950 127.245, 283.268 128.990, 279.318 131.319 M 566 193 L 566 210 575.500 210 L 585 210 585 273 L 585 336 575.500 336 L 566 336 566 353.500 L 566 371 646 371 L 726 371 726 339 L 726 307 711.138 307 L 696.275 307 695.675 312.250 C 695.346 315.137, 694.769 321.663, 694.394 326.750 L 693.713 336 659.857 336 L 626 336 626 312.016 L 626 288.032 653.750 287.766 L 681.500 287.500 681.778 273.750 L 682.056 260 654.028 260 L 626 260 626 235 L 626 210 659.799 210 L 693.597 210 694.758 224.030 C 695.396 231.746, 696.188 238.496, 696.518 239.030 C 696.861 239.584, 703.304 240, 711.559 240 L 726 240 726 208 L 726 176 646 176 L 566 176 566 193 M 1540 193 L 1540 210 1549.500 210 L 1559 210 1559 272.500 L 1559 335 1549.500 335 L 1540 335 1540 353 L 1540 371 1583.750 370.977 C 1643.030 370.947, 1656.287 369.776, 1673.743 363.034 C 1693.382 355.449, 1709.381 341.241, 1718.264 323.500 C 1724.395 311.253, 1728.990 290.253, 1728.986 274.500 C 1728.972 227.442, 1708.499 194.908, 1670.722 181.915 C 1654.615 176.374, 1649.656 176, 1592.369 176 L 1540 176 1540 193 M 1742 193 L 1742 210 1751.500 210 L 1761 210 1761 273 L 1761 336 1751.476 336 L 1741.953 336 1742.226 353.250 L 1742.500 370.500 1822.500 370.500 L 1902.500 370.500 1902.764 338.750 L 1903.028 307 1888.033 307 C 1870.738 307, 1872.534 305.642, 1871.507 319.500 C 1871.181 323.900, 1870.657 329.413, 1870.344 331.750 L 1869.773 336 1836.386 336 L 1803 336 1803 312 L 1803 288 1830.500 288 L 1858 288 1858 274 L 1858 260 1830.500 260 L 1803 260 1803 235 L 1803 210 1836.386 210 L 1869.773 210 1870.343 214.250 C 1870.656 216.588, 1871.192 222.550, 1871.534 227.500 C 1872.491 241.336, 1870.845 240.096, 1887.826 239.776 L 1902.500 239.500 1902.764 207.750 L 1903.028 176 1822.514 176 L 1742 176 1742 193 M 1301 199 L 1301 221 1289.500 221 L 1278 221 1278 236 L 1278 251 1289.427 251 L 1300.855 251 1301.239 289.750 C 1301.597 325.867, 1301.772 329.043, 1303.817 336.500 C 1308.513 353.621, 1315.909 363.689, 1327.997 369.418 C 1334.337 372.423, 1334.863 372.500, 1349 372.486 C 1362.012 372.473, 1364.500 372.178, 1373.243 369.602 C 1378.601 368.023, 1383.611 366.229, 1384.376 365.616 C 1385.557 364.668, 1385.433 362.056, 1383.552 348.252 C 1382.334 339.315, 1381.129 331.796, 1380.875 331.542 C 1380.622 331.288, 1377.508 331.992, 1373.957 333.106 C 1370.406 334.219, 1364.557 335.383, 1360.960 335.693 C 1351.569 336.500, 1346.808 333.957, 1343.166 326.187 L 1340.500 320.500 1340.171 285.750 L 1339.842 251 1360.921 251 L 1382 251 1382 236 L 1382 221 1361 221 L 1340 221 1340 199 L 1340 177 1320.500 177 L 1301 177 1301 199 M 140.197 211.858 L 136.982 214.500 136.991 299.564 L 137 384.628 164.750 400.635 C 180.012 409.439, 213.719 428.897, 239.653 443.875 L 286.805 471.108 291.888 468.304 C 294.684 466.762, 296.978 465.206, 296.986 464.846 C 296.994 464.486, 274.652 427.136, 247.338 381.846 C 220.023 336.556, 185.466 279.186, 170.543 254.358 L 143.412 209.215 140.197 211.858 M 1600 272.891 L 1600 336 1619.840 336 C 1648.482 336, 1658.538 333.063, 1670.486 321.210 C 1680.459 311.317, 1685.683 297.525, 1686.694 278.422 C 1688.318 247.745, 1678.285 225.732, 1658 215.461 C 1650.281 211.552, 1644.905 210.772, 1622.250 210.273 L 1600 209.783 1600 272.891 M 1008.411 220.484 C 1000.960 222.105, 992.118 226.468, 985.198 231.938 L 980 236.047 980 228.508 L 980 220.970 950.750 221.235 L 921.500 221.500 921.500 236 L 921.500 250.500 930.750 250.788 L 940 251.075 940 322 L 940 392.925 930.750 393.212 L 921.500 393.500 921.500 408 L 921.500 422.500 960 422.500 L 998.500 422.500 998.777 407.750 L 999.053 393 989.527 393 L 980 393 980 373.915 L 980 354.830 984.750 359.020 C 1000.532 372.943, 1026.576 376.778, 1047.917 368.321 C 1066.361 361.013, 1079.082 345.545, 1085.192 323 C 1087.231 315.479, 1087.490 312.311, 1087.443 295.500 C 1087.398 279.161, 1087.084 275.379, 1085.201 268.500 C 1079.554 247.865, 1068.072 232.893, 1052 225.204 C 1047.325 222.968, 1040.830 220.657, 1037.566 220.069 C 1029.682 218.649, 1015.948 218.844, 1008.411 220.484 M 1154.500 220.108 C 1151.750 220.655, 1145.675 222.939, 1141 225.183 C 1134.275 228.411, 1130.930 230.855, 1124.982 236.882 C 1116.014 245.969, 1111.184 254.964, 1107.397 269.629 C 1105.223 278.049, 1104.846 281.705, 1104.833 294.500 C 1104.804 322.743, 1111.516 341.914, 1126.583 356.624 C 1146.667 376.232, 1185.261 378.360, 1206.750 361.044 L 1212.914 356.077 1213.207 363.289 L 1213.500 370.500 1242.500 370.500 L 1271.500 370.500 1271.777 355.750 L 1272.053 341 1262.527 341 L 1253 341 1253 281 L 1253 221 1233 221 L 1213 221 1213 228.703 L 1213 236.406 1209.250 232.860 C 1203.659 227.572, 1200.282 225.540, 1192 222.476 C 1185.552 220.090, 1182.747 219.660, 1172 219.406 C 1165.125 219.244, 1157.250 219.560, 1154.500 220.108 M 1442.633 220.553 C 1434.385 222.191, 1426.898 224.572, 1421.573 227.248 C 1415.961 230.068, 1407.179 238.713, 1404.445 244.109 C 1399.252 254.357, 1399.144 269.481, 1404.193 279.377 C 1411.063 292.844, 1421.861 299.697, 1453.807 310.863 C 1476.651 318.848, 1482.583 323.040, 1482.267 330.973 C 1482.066 335.992, 1479.845 339.349, 1475.191 341.664 C 1472.078 343.213, 1469.230 343.480, 1457 343.375 C 1447.615 343.294, 1440.913 342.751, 1438 341.835 L 1433.500 340.420 1432.500 329.960 L 1431.500 319.500 1416.730 319.223 L 1401.961 318.946 1402.230 340.723 L 1402.500 362.500 1414.446 365.744 C 1432.179 370.560, 1446.111 372.438, 1463.500 372.355 C 1499.742 372.183, 1517.907 361.565, 1522.011 338.152 C 1524.827 322.086, 1518.067 306.541, 1504.168 297.122 C 1495.965 291.564, 1491.675 289.552, 1471.573 281.836 C 1446.294 272.133, 1441.071 268.430, 1440.733 259.973 C 1440.355 250.484, 1447.633 247.059, 1468 247.143 C 1475.425 247.174, 1482.625 247.511, 1484 247.892 C 1486.647 248.626, 1486.871 249.485, 1488.537 265.250 L 1489.144 271 1503.072 271 L 1517 271 1517 250.013 L 1517 229.027 1513.567 227.592 C 1507.667 225.127, 1494.951 221.944, 1485.029 220.448 C 1473.263 218.675, 1451.818 218.727, 1442.633 220.553 M 740.223 235.750 L 740.500 250.500 750.759 250.785 L 761.019 251.070 780.009 273.193 C 790.454 285.361, 799 295.608, 799 295.964 C 799 296.320, 790.181 306.599, 779.403 318.806 L 759.805 341 749.876 341 L 739.947 341 740.223 355.750 L 740.500 370.500 777.250 370.762 L 814 371.025 814 356.062 L 814 341.100 808.328 340.800 L 802.655 340.500 813.578 327.538 C 819.585 320.409, 824.950 314.757, 825.500 314.978 C 826.050 315.200, 831.310 321.033, 837.188 327.940 L 847.876 340.500 841.912 340.798 L 835.947 341.097 836.224 355.798 L 836.500 370.500 873.250 370.762 L 910 371.025 910 356.012 L 910 341 900.250 340.956 L 890.500 340.912 870.737 318.455 L 850.974 295.998 870.237 273.509 L 889.500 251.020 899.750 251.010 L 910 251 910 236 L 910 221 872.973 221 L 835.947 221 836.223 235.750 L 836.500 250.500 841.759 251 L 847.018 251.500 836.398 264.500 C 830.556 271.650, 825.652 277.638, 825.498 277.807 C 825.153 278.187, 804 252.377, 804 251.577 C 804 251.260, 806.250 251, 809 251 L 814 251 814 236 L 814 221 776.973 221 L 739.947 221 740.223 235.750 M 1001.878 255.389 C 993.028 257.952, 985.148 265.160, 981.207 274.297 C 980.401 276.164, 980 283.577, 980 296.580 C 980 315.383, 980.088 316.239, 982.500 321 C 985.848 327.607, 991.143 332.710, 997.914 335.856 C 1002.555 338.012, 1004.853 338.433, 1011.500 338.348 C 1032.963 338.073, 1046.091 324.156, 1047.673 300 C 1048.967 280.238, 1041.365 264.240, 1027.446 257.430 C 1020.954 254.253, 1009.072 253.305, 1001.878 255.389 M 1172.274 254.995 C 1153.867 258.884, 1142.579 279.627, 1145.794 303.658 C 1148.520 324.032, 1159.510 336, 1177.766 338.478 C 1190.907 340.261, 1204.383 332.998, 1210.600 320.783 C 1212.891 316.281, 1213 315.178, 1213 296.500 C 1213 277.612, 1212.913 276.763, 1210.500 272 C 1203.667 258.515, 1188.193 251.631, 1172.274 254.995" stroke="none" fill="#181919" fill-rule="evenodd"/></svg>